<svg id="visual" viewBox="0 0 900 600" width="900" height="600" xmlns="http://www.w3.org/2000/svg" xmlns:xlink="http://www.w3.org/1999/xlink" version="1.1"><path d="M0 43L82 43L82 43L164 43L164 79L245 79L245 103L327 103L327 49L409 49L409 43L491 43L491 127L573 127L573 61L655 61L655 121L736 121L736 55L818 55L818 49L900 49L900 91L900 0L900 0L818 0L818 0L736 0L736 0L655 0L655 0L573 0L573 0L491 0L491 0L409 0L409 0L327 0L327 0L245 0L245 0L164 0L164 0L82 0L82 0L0 0Z" fill="#fa7268"></path><path d="M0 133L82 133L82 205L164 205L164 259L245 259L245 289L327 289L327 145L409 145L409 301L491 301L491 265L573 265L573 241L655 241L655 211L736 211L736 145L818 145L818 331L900 331L900 313L900 89L900 47L818 47L818 53L736 53L736 119L655 119L655 59L573 59L573 125L491 125L491 41L409 41L409 47L327 47L327 101L245 101L245 77L164 77L164 41L82 41L82 41L0 41Z" fill="#ea5e66"></path><path d="M0 241L82 241L82 265L164 265L164 403L245 403L245 415L327 415L327 307L409 307L409 379L491 379L491 331L573 331L573 409L655 409L655 307L736 307L736 307L818 307L818 397L900 397L900 421L900 311L900 329L818 329L818 143L736 143L736 209L655 209L655 239L573 239L573 263L491 263L491 299L409 299L409 143L327 143L327 287L245 287L245 257L164 257L164 203L82 203L82 131L0 131Z" fill="#d84a64"></path><path d="M0 505L82 505L82 565L164 565L164 565L245 565L245 511L327 511L327 511L409 511L409 529L491 529L491 541L573 541L573 529L655 529L655 529L736 529L736 559L818 559L818 529L900 529L900 535L900 419L900 395L818 395L818 305L736 305L736 305L655 305L655 407L573 407L573 329L491 329L491 377L409 377L409 305L327 305L327 413L245 413L245 401L164 401L164 263L82 263L82 239L0 239Z" fill="#c53762"></path><path d="M0 601L82 601L82 601L164 601L164 601L245 601L245 601L327 601L327 601L409 601L409 601L491 601L491 601L573 601L573 601L655 601L655 601L736 601L736 601L818 601L818 601L900 601L900 601L900 533L900 527L818 527L818 557L736 557L736 527L655 527L655 527L573 527L573 539L491 539L491 527L409 527L409 509L327 509L327 509L245 509L245 563L164 563L164 563L82 563L82 503L0 503Z" fill="#b0235f"></path></svg>