<svg id="visual" viewBox="0 0 900 600" width="900" height="600" xmlns="http://www.w3.org/2000/svg" xmlns:xlink="http://www.w3.org/1999/xlink" version="1.1"><rect x="0" y="0" width="900" height="600" fill="#001220"></rect><path d="M0 422L21.5 424.8C43 427.7 86 433.3 128.8 433.2C171.7 433 214.3 427 257.2 417.8C300 408.7 343 396.3 385.8 384.7C428.7 373 471.3 362 514.2 359.2C557 356.3 600 361.7 642.8 363.2C685.7 364.7 728.3 362.3 771.2 374.5C814 386.7 857 413.3 878.5 426.7L900 440L900 601L878.5 601C857 601 814 601 771.2 601C728.3 601 685.7 601 642.8 601C600 601 557 601 514.2 601C471.3 601 428.7 601 385.8 601C343 601 300 601 257.2 601C214.3 601 171.7 601 128.8 601C86 601 43 601 21.5 601L0 601Z" fill="#fa7268"></path><path d="M0 476L21.5 466.8C43 457.7 86 439.3 128.8 436C171.7 432.7 214.3 444.3 257.2 442.2C300 440 343 424 385.8 423.7C428.7 423.3 471.3 438.7 514.2 440.7C557 442.7 600 431.3 642.8 429.3C685.7 427.3 728.3 434.7 771.2 438.3C814 442 857 442 878.5 442L900 442L900 601L878.5 601C857 601 814 601 771.2 601C728.3 601 685.7 601 642.8 601C600 601 557 601 514.2 601C471.3 601 428.7 601 385.8 601C343 601 300 601 257.2 601C214.3 601 171.7 601 128.8 601C86 601 43 601 21.5 601L0 601Z" fill="#ef5f67"></path><path d="M0 505L21.5 497.3C43 489.7 86 474.3 128.8 464.2C171.7 454 214.3 449 257.2 454.2C300 459.3 343 474.7 385.8 479.5C428.7 484.3 471.3 478.7 514.2 472.8C557 467 600 461 642.8 459.8C685.7 458.7 728.3 462.3 771.2 461.5C814 460.7 857 455.3 878.5 452.7L900 450L900 601L878.5 601C857 601 814 601 771.2 601C728.3 601 685.7 601 642.8 601C600 601 557 601 514.2 601C471.3 601 428.7 601 385.8 601C343 601 300 601 257.2 601C214.3 601 171.7 601 128.8 601C86 601 43 601 21.5 601L0 601Z" fill="#e34c67"></path><path d="M0 514L21.5 508.8C43 503.7 86 493.3 128.8 495.7C171.7 498 214.3 513 257.2 518.5C300 524 343 520 385.8 517.5C428.7 515 471.3 514 514.2 517C557 520 600 527 642.8 522.8C685.7 518.7 728.3 503.3 771.2 499C814 494.7 857 501.3 878.5 504.7L900 508L900 601L878.5 601C857 601 814 601 771.2 601C728.3 601 685.7 601 642.8 601C600 601 557 601 514.2 601C471.3 601 428.7 601 385.8 601C343 601 300 601 257.2 601C214.3 601 171.7 601 128.8 601C86 601 43 601 21.5 601L0 601Z" fill="#d53867"></path><path d="M0 541L21.5 545.3C43 549.7 86 558.3 128.8 555.8C171.7 553.3 214.3 539.7 257.2 532.7C300 525.7 343 525.3 385.8 528.2C428.7 531 471.3 537 514.2 539.8C557 542.7 600 542.3 642.8 543.3C685.7 544.3 728.3 546.7 771.2 549.7C814 552.7 857 556.3 878.5 558.2L900 560L900 601L878.5 601C857 601 814 601 771.2 601C728.3 601 685.7 601 642.8 601C600 601 557 601 514.2 601C471.3 601 428.7 601 385.8 601C343 601 300 601 257.2 601C214.3 601 171.7 601 128.8 601C86 601 43 601 21.5 601L0 601Z" fill="#c62368"></path></svg>